# xmcd
# 
# Track frame offsets:
#   150
#   17797
#   29697
#   44457
#   58450
#   69827
#   81110
#   95285
#   109820
#   122065
#   137900
#   155517
#   167465
#   182240
#   196270
#   207680
#   218947
#   233102
#   247615
#   259797
# 
# Disc length: 3871 seconds
# 
# Revision: 3
# Processed by: cddbd v1.5.2PL0 Copyright (c) Steve Scherf et al.
# Submitted via: Synapstar 1.0 
# 
DISCID=200f1d14
DTITLE=Whittaker, Roger - THMP003
DYEAR=1900
DGENRE=Country
TTITLE0=The Last Farewell (Vocals)
TTITLE1=Blues Eyes Cryin In The Rain (Vocals)
TTITLE2=Durham Town (Vocals)
TTITLE3=There Goes My Everything (Vocals)
TTITLE4=I Love You Because (Vocals)
TTITLE5=New World In The Morning (Vocals)
TTITLE6=Have I Told You Lately That I Love You (Vocals)
TTITLE7=I'd Fall In Love Tonight (Vocals)
TTITLE8=But She Loves Me
TTITLE9=Keep On Chasin' Rainbows
TTITLE10=The Last Farewell
TTITLE11=Blues Eyes Cryin In The Rain
TTITLE12=Durham Town
TTITLE13=There Goes My Everything
TTITLE14=I Love You Because
TTITLE15=New World In The Morning
TTITLE16=Have I Told You Lately That I Love You
TTITLE17=I'd Fall In Love Tonight
TTITLE18=But She Loves Me
TTITLE19=Keep On Chasin' Rainbows
EXTD=MediaType: Karaoke CD+G Producer: Other
EXTT0=
EXTT1=
EXTT2=
EXTT3=
EXTT4=
EXTT5=
EXTT6=
EXTT7=
EXTT8=
EXTT9=
EXTT10=
EXTT11=
EXTT12=
EXTT13=
EXTT14=
EXTT15=
EXTT16=
EXTT17=
EXTT18=
EXTT19=
PLAYORDER=
